<?xml version="1.0" standalone="no"?>
<!DOCTYPE svg PUBLIC "-//W3C//DTD SVG 1.1//EN" "http://www.w3.org/Graphics/SVG/1.1/DTD/svg11.dtd" >
<svg xmlns="http://www.w3.org/2000/svg">
<metadata>
<json>
<![CDATA[
{
	"fontFamily": "funnelenvy",
	"majorVersion": 1,
	"minorVersion": 0,
	"version": "Version 1.0",
	"fontId": "funnelenvy",
	"psName": "funnelenvy",
	"subFamily": "Regular",
	"fullName": "funnelenvy",
	"description": "Font generated by IcoMoon."
}
]]>
</json>
</metadata>
<defs>
<font id="funnelenvy" horiz-adv-x="1024">
<font-face units-per-em="1024" ascent="960" descent="-64" />
<missing-glyph horiz-adv-x="1024" />
<glyph unicode="&#x20;" horiz-adv-x="512" d="" />
<glyph unicode="&#xe900;" glyph-name="trash" data-tags="trash" d="M493.583 46.504h36.835c7.367 0 14.734 7.367 14.734 14.734v626.187c0 7.367-7.367 14.734-14.734 14.734h-36.835c-7.367 0-14.734-7.367-14.734-14.734v-626.187c0-7.367 7.367-14.734 14.734-14.734zM640.921 46.504h36.835c7.367 0 14.734 7.367 14.734 14.734v626.187c0 7.367-7.367 14.734-14.734 14.734h-36.835c-7.367 0-14.734-7.367-14.734-14.734v-626.187c0-7.367 7.367-14.734 14.734-14.734zM898.763 812.662h-206.273v58.935c0 47.885-40.518 88.403-88.403 88.403h-184.173c-47.885 0-88.403-40.518-88.403-88.403v-58.935h-206.273c-7.367 0-14.734-7.367-14.734-14.734v-36.835c0-7.367 7.367-14.734 14.734-14.734h58.935v-685.122c0-69.986 55.252-125.237 125.237-125.237h405.18c69.986 0 125.237 55.252 125.237 125.237v685.122h58.935c7.367 0 14.734 7.367 14.734 14.734v36.835c0 7.367-7.367 14.734-14.734 14.734zM397.813 812.662v58.935c0 11.050 11.050 22.101 22.101 22.101h184.173c14.734 0 22.101-11.050 22.101-22.101v-58.935h-228.374zM773.526 746.36v-685.122c0-33.151-25.784-58.935-58.935-58.935h-405.18c-33.151 0-58.935 25.784-58.935 58.935v685.122h523.050zM346.245 46.504h36.835c7.367 0 14.734 7.367 14.734 14.734v626.187c0 7.367-7.367 14.734-14.734 14.734h-36.835c-7.367 0-14.734-7.367-14.734-14.734v-626.187c0-7.367 7.367-14.734 14.734-14.734z" />
<glyph unicode="&#xe901;" glyph-name="tools" data-tags="tools" d="M221.031-0.001c-30.789 0-61.582 12.316-86.213 36.947-46.185 46.185-46.185 126.239 0 172.426l314.061 314.061-21.552 132.397c-3.079 9.237 0 18.473 9.237 27.71l197.058 200.137c9.237 9.237 21.552 12.316 33.868 6.158l160.111-58.503c9.237-3.079 18.473-12.316 18.473-21.552s0-21.552-9.237-27.71l-178.584-175.505 40.025-55.424 144.716 129.317c9.237 6.158 18.473 9.237 30.789 6.158 9.237-3.079 18.473-12.316 21.552-21.552l36.947-166.269c3.079-12.316 0-21.552-9.237-30.789l-172.426-150.874c-9.237-6.158-18.473-9.237-27.71-6.158l-107.766 30.789-307.901-307.901c-24.631-21.552-55.424-33.868-86.213-33.868zM491.986 652.754l21.552-132.397c3.079-9.237 0-18.473-9.237-27.71l-326.379-326.379c-24.631-24.631-24.631-61.582 0-86.213s61.582-24.631 86.213 0l320.221 320.221c9.237 9.237 18.473 12.316 30.789 9.237l107.766-30.789 144.716 126.239-21.552 98.529-129.317-117.002c-6.158-6.158-15.395-9.237-24.631-6.158-9.237 0-15.395 6.158-21.552 12.316l-73.898 98.529c-9.237 12.316-6.158 30.789 3.079 40.025l160.111 157.032-95.45 33.868-172.426-169.348z" />
<glyph unicode="&#xe902;" glyph-name="remove" data-tags="small-close" d="M682.666 678.4l-170.667-170.667-170.667 170.667c-4.267 4.267-12.8 4.267-17.067 0l-42.667-42.667c-4.267-4.267-4.267-12.8 0-17.067l170.667-170.667-170.667-170.667c-4.267-4.267-4.267-12.8 0-17.067l42.667-42.667c4.267-4.267 12.8-4.267 17.067 0l170.667 170.667 170.667-170.667c4.267-4.267 12.8-4.267 17.067 0l42.667 42.667c4.267 4.267 4.267 12.8 0 17.067l-170.667 170.667 170.667 170.667c4.267 4.267 4.267 12.8 0 17.067l-42.667 42.667c-4.267 8.533-12.8 8.533-17.067 0zM512 960c-281.6 0-512-230.4-512-512s230.4-512 512-512 512 230.4 512 512-230.4 512-512 512zM512 21.333c-234.667 0-426.667 192-426.667 426.667s192 426.667 426.667 426.667 426.667-192 426.667-426.667-192-426.667-426.667-426.667z" />
<glyph unicode="&#xe903;" glyph-name="settings" data-tags="settings" d="M618.716-10.722c-6.372 0-15.927 3.186-22.298 9.558l-63.712 57.34c-12.743 12.743-31.856 12.743-44.597 0l-63.712-57.34c-6.372-6.372-19.112-9.558-28.67-6.372-60.526 15.927-114.68 41.415-162.463 76.453-9.558 6.372-12.743 15.927-12.743 28.67l6.372 86.010c0 15.927-9.558 31.856-28.67 35.042l-82.824 12.743c-9.558 3.186-19.112 9.558-25.484 19.112-25.484 54.154-38.228 111.495-41.415 175.207 0 9.558 6.372 22.298 12.743 28.67l73.267 50.968c12.743 9.558 19.112 28.67 9.558 41.415l-44.597 79.639c-6.372 9.558-6.372 22.298 0 31.856 31.856 47.783 66.898 92.382 111.495 130.607 9.558 9.558 22.298 9.558 31.856 6.372l86.010-25.484c15.927-6.372 31.856 3.186 38.228 19.112l35.042 86.010c3.186 9.558 12.743 19.112 22.298 19.112 60.526 12.743 117.866 12.743 175.207 0 9.558-3.186 19.112-9.558 22.298-19.112l35.042-86.010c6.372-15.927 22.298-22.298 38.228-19.112l89.196 25.484c9.558 3.186 22.298 0 28.67-6.372 44.597-38.228 82.824-86.010 108.309-136.979 6.372-9.558 3.186-22.298 0-31.856l-41.415-76.453c-9.558-15.927-3.186-31.856 9.558-41.415v0l73.267-50.968c9.558-6.372 12.743-15.927 12.743-28.67-3.186-60.526-15.927-117.866-41.415-175.207-3.186-9.558-12.743-15.927-25.484-19.112l-86.010-12.743c-15.927-3.186-28.67-15.927-28.67-35.042l6.372-86.010c0-9.558-3.186-22.298-12.743-28.67-47.783-35.042-101.937-63.712-162.463-76.453 0 3.186-3.186 0-6.372 0zM513.592 129.443c22.298 0 47.783-9.558 63.712-25.484l50.968-47.783c38.228 12.743 76.453 28.67 108.309 50.968l-6.372 66.898c-3.186 50.968 31.856 95.568 79.639 101.937l70.085 9.558c15.927 38.228 25.484 76.453 28.67 117.866l-57.34 41.415c-41.415 28.67-54.154 82.824-28.67 127.425l35.042 63.712c-19.112 35.042-44.597 66.898-73.267 92.382l-70.085-22.298c-47.783-15.927-98.755 9.558-117.866 57.34l-25.484 70.085c-38.228 6.372-76.453 6.372-117.866 0l-28.67-70.085c-19.112-47.783-70.085-70.085-117.866-57.34l-66.898 25.484c-28.67-28.67-50.968-60.526-73.267-92.382l35.042-63.712c25.484-44.597 12.743-98.755-28.67-127.425l-57.34-41.415c3.186-41.415 12.743-79.639 28.67-117.866l70.085-9.558c47.783-6.372 86.010-50.968 79.639-101.937l-6.372-66.898c35.042-22.298 70.085-41.415 108.309-50.968l50.968 47.783c19.112 12.743 44.597 22.298 66.898 22.298zM513.592 228.197c-114.68 0-207.063 95.568-207.063 207.063 0 114.68 92.382 207.063 207.063 207.063s207.063-92.382 207.063-207.063c0-111.495-92.382-207.063-207.063-207.063zM513.592 578.607c-79.639 0-143.351-63.712-143.351-143.351s63.712-143.351 143.351-143.351 143.351 63.712 143.351 143.351c0 79.639-63.712 143.351-143.351 143.351z" />
<glyph unicode="&#xe904;" glyph-name="report" data-tags="report" d="M140.254 128.635v67.589l206.15 243.325 148.699-148.699c3.378-3.378 10.139-3.378 13.518 0l294.018 294.018v-37.175c0-6.76 3.378-10.139 10.139-10.139h47.314c6.76 0 10.139 3.378 10.139 10.139v145.318c0 6.76-3.378 10.139-10.139 10.139h-145.318c-6.76 0-10.139-3.378-10.139-10.139v-47.314c0-6.76 3.378-10.139 10.139-10.139h40.554l-253.465-253.465-152.079 152.079c-3.378 3.378-10.139 3.378-13.518 0l-196.011-233.186v523.826c0 6.76-3.378 10.139-10.139 10.139h-47.314c-6.76 0-10.139-6.76-10.139-10.139v-753.629c0-6.76 3.378-10.139 10.139-10.139h858.396c6.76 0 10.139 3.378 10.139 10.139v47.314c0 6.76-3.378 10.139-10.139 10.139h-800.943z" />
<glyph unicode="&#xe905;" glyph-name="list" data-tags="list" d="M1012.275 702.046h-723.054c-7.817 0-11.725 3.908-11.725 11.725v54.718c0 7.817 3.908 11.725 11.725 11.725h723.054c7.817 0 11.725-3.908 11.725-11.725v-54.718c0-7.817-3.908-11.725-11.725-11.725zM152.428 659.054h-140.702c-7.817 0-11.725 3.908-11.725 11.725v140.702c0 7.817 3.908 11.725 11.725 11.725h140.702c7.817 0 11.725-3.908 11.725-11.725v-140.702c0-7.817-3.908-11.725-11.725-11.725zM1012.275 408.917h-723.054c-7.817 0-11.725 3.908-11.725 11.725v54.718c0 7.817 3.908 11.725 11.725 11.725h723.054c7.817 0 11.725-3.908 11.725-11.725v-54.718c0-7.817-3.908-11.725-11.725-11.725zM152.428 365.924h-140.702c-7.817 0-11.725 3.908-11.725 11.725v140.702c0 7.817 3.908 11.725 11.725 11.725h140.702c7.817 0 11.725-3.908 11.725-11.725v-140.702c0-7.817-3.908-11.725-11.725-11.725zM1012.275 115.787h-723.054c-7.817 0-11.725 3.908-11.725 11.725v54.718c0 7.817 3.908 11.725 11.725 11.725h723.054c7.817 0 11.725-3.908 11.725-11.725v-54.718c0-7.817-3.908-11.725-11.725-11.725zM152.428 72.794h-140.702c-7.817 0-11.725 3.908-11.725 11.725v140.702c0 7.817 3.908 11.725 11.725 11.725h140.702c7.817 0 11.725-3.908 11.725-11.725v-140.702c0-7.817-3.908-11.725-11.725-11.725z" />
<glyph unicode="&#xe906;" glyph-name="journey" data-tags="journey" d="M555.735 827.034v-349.879h-116.626v349.879h-349.879v-758.069h349.879v349.879h116.626v-349.879h379.034v758.069h-379.034zM380.795 127.278h-233.253v641.443h233.253v-641.443zM876.454 127.278h-262.408v291.563h134.119l-81.639-81.639 40.819-40.819 151.614 151.614-154.53 154.53-40.819-40.819 81.639-81.639h-131.205v288.647h262.408v-641.443z" />
<glyph unicode="&#xe907;" glyph-name="edit" data-tags="edit" d="M809.528 624.313l-536.286-532.613-124.888 124.888 536.286 532.613 124.888-124.888zM842.587 661.045l-121.216 121.216 80.81 80.81c18.366 18.366 47.752 18.366 66.118 0l55.098-55.098c18.366-18.366 18.366-47.752 0-66.118l-80.81-80.81zM122.642 179.857l117.542-117.542-146.928-29.386 29.386 146.928zM78.565 205.57l-47.752-235.084 235.084 47.752 690.559 690.559c36.732 36.732 36.732 95.503 0 132.234l-55.098 55.098c-36.732 36.732-95.503 36.732-132.234 0l-690.559-690.559zM30.812-44.207c-3.674 0-7.346 0-11.020 3.674s-3.674 7.346-3.674 11.020l47.752 235.084c0 3.674 3.674 3.674 3.674 7.346l690.559 694.233c22.040 22.040 47.752 33.058 77.137 33.058 0 0 0 0 0 0 29.386 0 55.098-11.020 77.137-33.058l55.098-55.098c40.406-40.406 40.406-110.196 0-154.274l-690.559-690.559c-3.674-3.674-3.674-3.674-7.346-3.674l-238.758-47.752c0 0 0 0 0 0zM89.582 201.896l-44.078-213.045 213.045 44.078 690.559 683.213c33.058 33.058 33.058 84.484 0 113.87l-55.098 58.771c-14.692 14.692-36.732 22.040-55.098 22.040 0 0 0 0 0 0-22.040 0-40.406-7.346-58.771-25.712l-690.559-683.213zM89.582 18.237c-3.674 0-7.346 0-11.020 3.674s-3.674 7.346-3.674 11.020l29.386 146.928c0 3.674 3.674 7.346 11.020 11.020s11.020 0 14.692-3.674l117.542-117.542c3.674-3.674 3.674-7.346 3.674-14.692 0-3.674-7.346-7.346-11.020-11.020l-150.601-25.712c3.674 0 3.674 0 0 0zM129.988 150.472l-22.040-102.85 102.85 22.040-80.81 80.81zM273.242 77.008c-3.674 0-7.346 0-11.020 3.674l-121.216 124.888c-3.674 3.674-3.674 14.692 0 18.366l536.286 536.286c3.674 3.674 14.692 3.674 18.366 0l124.888-124.888c3.674-3.674 3.674-14.692 0-18.366l-536.286-536.286c-3.674-3.674-7.346-3.674-11.020-3.674zM170.391 212.916l102.85-102.85 514.247 514.247-102.85 102.85-514.247-514.247zM842.587 646.352c-3.674 0-7.346 0-11.020 3.674l-124.888 124.888c-3.674 3.674-3.674 14.692 0 18.366l80.81 80.81c22.040 22.040 62.444 22.040 88.156 0l55.098-55.098c11.020-11.020 18.366-25.712 18.366-44.078 0-14.692-7.346-33.058-18.366-44.078l-80.81-80.81c0-3.674-3.674-3.674-7.346-3.674zM739.737 782.26l102.85-102.85 73.464 73.464c7.346 7.346 11.020 14.692 11.020 22.040s-3.674 18.366-11.020 22.040l-55.098 55.098c-14.692 14.692-33.058 14.692-47.752 0l-73.464-69.79z" />
<glyph unicode="&#xe908;" glyph-name="dashboard" data-tags="dashboard" d="M1024 147.628h-1024v34.133c0 310.613 228.693 566.613 512 566.613s512-252.587 512-563.2v-37.547zM68.267 215.895h887.467c-17.067 259.413-208.213 464.213-443.733 464.213s-426.667-204.8-443.733-464.213zM703.147 523.095c0 0-331.093-177.493-252.587-252.587 10.24-10.24 20.48-13.653 30.72-13.653 85.333-3.413 221.867 266.24 221.867 266.24v0z" />
<glyph unicode="&#xe909;" glyph-name="close" data-tags="close" d="M1024 907.679l-52.321 52.321-459.679-459.679-459.679 459.679-52.321-52.321 459.679-459.679-459.679-459.679 52.321-52.321 459.679 459.679 459.679-459.679 52.321 52.321-459.679 459.679z" />
<glyph unicode="&#xe90a;" glyph-name="card" data-tags="card" d="M392.276 875.586v-307.862h-307.862v307.862h307.862zM460.689 944h-444.689v-444.689h444.689v444.689zM939.586 875.586v-307.862h-307.862v307.862h307.862zM1008 944h-444.689v-444.689h444.689v444.689zM392.276 328.276v-307.862h-307.862v307.862h307.862zM460.689 396.689h-444.689v-444.689h444.689v444.689zM939.586 328.276v-307.862h-307.862v307.862h307.862zM1008 396.689h-444.689v-444.689h444.689v444.689z" />
<glyph unicode="&#xe90b;" glyph-name="audience" data-tags="audience" d="M803.853 455.223c52.015 31.787 83.798 89.577 83.798 153.152 0 101.136-80.908 182.048-182.048 182.048-11.559 0-20.228 0-28.897-2.89-31.787 54.905-89.577 92.467-158.931 92.467s-127.144-37.567-158.931-92.467c-11.559 2.89-26.008 5.779-40.456 5.779-101.136 0-182.048-80.908-182.048-182.048 0-63.572 34.677-121.364 83.798-153.152-49.126-34.677-83.798-89.577-83.798-156.041v-286.075h751.305v286.075c0 66.461-34.677 121.364-83.798 153.152zM517.777 825.097c69.35 0 124.254-54.905 124.254-124.254s-54.905-124.254-124.254-124.254-124.254 54.905-124.254 124.254c0 66.461 54.905 124.254 124.254 124.254zM335.73 391.653v-317.859h-141.593v228.28c0 69.35 54.905 124.254 124.254 124.254 5.779 0 11.559 0 20.228-2.89-2.89-8.669-2.89-20.228-2.89-31.787zM367.516 495.678c-14.449-5.779-31.787-11.559-49.126-11.559-69.35 0-124.254 57.794-124.254 127.144s54.905 124.254 124.254 124.254c5.779 0 11.559 0 20.228-2.89-2.89-11.559-2.89-23.118-2.89-34.677 0-63.572 34.677-121.364 83.798-153.152-20.228-11.559-37.567-28.897-52.015-49.126zM642.032 73.792h-248.508v317.859c0 69.35 54.905 124.254 124.254 124.254s124.254-54.905 124.254-124.254v-317.859zM616.024 544.804c52.015 31.787 83.798 89.577 83.798 153.152 0 11.559 0 23.118-2.89 34.677 2.89 0 5.779 0 8.669 0 69.35 0 124.254-54.905 124.254-124.254s-54.905-124.254-124.254-124.254c-11.559 0-23.118 2.89-34.677 5.779-14.449 23.118-34.677 40.456-54.905 54.905zM829.859 73.792h-130.034v317.859c0 11.559 0 23.118-2.89 34.677 2.89 0 5.779 0 8.669 0 69.35 0 124.254-54.905 124.254-124.254v-228.28z" />
<glyph unicode="&#xe90c;" glyph-name="caret-left" data-tags="caret-left" d="M197.286 443.548l503.096-503.096c4.452-4.452 13.357-4.452 17.809 0l44.522 44.522c4.452 4.452 4.452 13.357 0 17.809l-445.217 445.217 445.217 445.217c4.452 4.452 4.452 13.357 0 17.809l-44.522 44.522c-4.452 4.452-13.357 4.452-17.809 0l-503.096-494.191c-4.452-4.452-4.452-13.357 0-17.809z" />
<glyph unicode="&#xe90d;" glyph-name="caret-right" data-tags="caret-right" d="M826.714 452.452l-503.096 503.096c-4.452 4.452-13.357 4.452-17.809 0l-44.522-44.522c-4.452-4.452-4.452-13.357 0-17.809l445.217-445.217-445.217-445.217c-4.452-4.452-4.452-13.357 0-17.809l44.522-44.522c4.452-4.452 13.357-4.452 17.809 0l503.096 494.191c4.452 4.452 4.452 13.357 0 17.809z" />
<glyph unicode="&#xe90e;" glyph-name="caret-down" data-tags="caret-down" d="M507.548 133.286l-503.096 503.096c-4.452 4.452-4.452 13.357 0 17.809l44.522 44.522c4.452 4.452 13.357 4.452 17.809 0l445.217-445.217 445.217 445.217c4.452 4.452 13.357 4.452 17.809 0l44.522-44.522c4.452-4.452 4.452-13.357 0-17.809l-494.191-503.096c-4.452-4.452-13.357-4.452-17.809 0z" />
<glyph unicode="&#xe90f;" glyph-name="caret-up" data-tags="caret-up" d="M507.548 762.714l-503.096-503.096c-4.452-4.452-4.452-13.357 0-17.809l44.522-44.522c4.452-4.452 13.357-4.452 17.809 0l445.217 445.217 445.217-445.217c4.452-4.452 13.357-4.452 17.809 0l44.522 44.522c4.452 4.452 4.452 13.357 0 17.809l-494.191 503.096c-4.452 4.452-13.357 4.452-17.809 0z" />
<glyph unicode="&#xe910;" glyph-name="arrow-left" data-tags="arrow-left" d="M379.384 63.58l-376.026 376.026c-3.357 3.357-3.357 10.072 0 13.43l379.384 379.384c3.357 3.357 10.072 3.357 13.43 0l33.574-33.574c3.357-3.357 3.357-10.072 0-13.43l-302.164-302.164h886.347c6.715 0 10.072-3.357 10.072-10.072v-47.003c0-6.715-3.357-10.072-10.072-10.072h-889.705l302.164-302.164c3.357-3.357 3.357-10.072 0-13.43l-33.574-33.574c-3.357-6.715-10.072-6.715-13.43-3.357z" />
<glyph unicode="&#xe911;" glyph-name="arrow-right" data-tags="arrow-right" d="M644.616 63.58l376.026 376.026c3.357 3.357 3.357 10.072 0 13.43l-379.384 379.384c-3.357 3.357-10.072 3.357-13.43 0l-33.574-33.574c-3.357-3.357-3.357-10.072 0-13.43l302.164-302.164h-886.347c-6.715 0-10.072-3.357-10.072-10.072v-47.003c0-6.715 3.357-10.072 10.072-10.072h889.705l-302.164-302.164c-3.357-3.357-3.357-10.072 0-13.43l33.574-33.574c3.357-6.715 10.072-6.715 13.43-3.357z" />
<glyph unicode="&#xe912;" glyph-name="arrow-down" data-tags="arrow-down" d="M896.42 315.384l-376.026-376.026c-3.357-3.357-10.072-3.357-13.43 0l-379.384 379.384c-3.357 3.357-3.357 10.072 0 13.43l33.574 33.574c3.357 3.357 10.072 3.357 13.43 0l302.164-302.164v886.347c0 6.715 3.357 10.072 10.072 10.072h47.003c6.715 0 10.072-3.357 10.072-10.072v-889.705l302.164 302.164c3.357 3.357 10.072 3.357 13.43 0l33.574-33.574c6.715-3.357 6.715-10.072 3.357-13.43z" />
<glyph unicode="&#xe913;" glyph-name="arrow-up" data-tags="arrow-up" d="M896.42 580.616l-376.026 376.026c-3.357 3.357-10.072 3.357-13.43 0l-379.384-379.384c-3.357-3.357-3.357-10.072 0-13.43l33.574-33.574c3.357-3.357 10.072-3.357 13.43 0l302.164 302.164v-886.347c0-6.715 3.357-10.072 10.072-10.072h47.003c6.715 0 10.072 3.357 10.072 10.072v889.705l302.164-302.164c3.357-3.357 10.072-3.357 13.43 0l33.574 33.574c6.715 3.357 6.715 10.072 3.357 13.43z" />
<glyph unicode="&#xe914;" glyph-name="archive" data-tags="archive" d="M1024 809.813h-1024v-197.973h88.747v-525.653h846.507v525.653h88.747v197.973zM866.987 154.453h-709.973v457.387h709.973v-457.387zM955.733 680.107h-887.467v61.44h887.467v-61.44zM324.267 482.133h378.88v-68.267h-378.88v68.267z" />
<glyph unicode="&#xe915;" glyph-name="search" data-tags="search" d="M985.315 22.471l-259.413 259.413c68.267 72.818 104.676 172.942 104.676 273.067 0 223.004-182.044 405.049-405.049 405.049s-405.049-182.044-405.049-405.049 182.044-405.049 405.049-405.049c81.92 0 154.738 22.756 223.004 68.267l268.516-268.516c9.102-9.102 22.756-13.653 36.409-13.653 0 0 0 0 0 0 13.653 0 27.307 4.551 36.409 13.653s13.653 22.756 13.653 36.409c-4.551 13.653-9.102 27.307-18.204 36.409zM753.208 559.502c0-177.493-145.636-323.129-323.129-323.129s-327.68 141.084-327.68 323.129 145.636 323.129 323.129 323.129 327.68-145.636 327.68-323.129z" />
<glyph unicode="&#xe916;" glyph-name="add" data-tags="add" d="M1024 487.098h-476.625v472.902h-74.473v-472.902h-472.902v-74.473h472.902v-476.625h74.473v476.625h476.625v74.473z" />
<glyph unicode="&#xe917;" glyph-name="menu" data-tags="menu" d="M1012.093 666.295h-1000.186c-7.938 0-11.907 3.969-11.907 11.907v55.566c0 7.938 3.969 11.907 11.907 11.907h996.217c7.938 0 11.907-3.969 11.907-11.907v-55.566c3.969-7.938-3.969-11.907-7.938-11.907zM1012.093 408.31h-1000.186c-7.938 0-11.907 3.969-11.907 11.907v55.566c0 7.938 3.969 11.907 11.907 11.907h996.217c7.938 0 11.907-3.969 11.907-11.907v-55.566c3.969-7.938-3.969-11.907-7.938-11.907zM1012.093 150.326h-1000.186c-7.938 0-11.907 3.969-11.907 11.907v55.566c0 7.938 3.969 11.907 11.907 11.907h996.217c7.938 0 11.907-3.969 11.907-11.907v-55.566c3.969-7.938-3.969-11.907-7.938-11.907z" />
</font>
</defs>
</svg>
